<svg xmlns="http://www.w3.org/2000/svg" width="135" height="38" fill="none"><circle cx="16.8" cy="20.1" r="6.7" fill="#E3F024"/><path fill="#E2F024" d="M16.4 2h.7v30.6h-.7z"/><path fill="#E2F024" d="m14.7 4.9 1.4-.1 2.7 30.4-1.4.2z"/><path fill="#E2F024" d="m13.3 4.3 1-.2 4.6 26.7-1 .1z"/><path fill="#E2F024" d="m12 3.5 1.4-.4 8 29.9-1.5.3z"/><path fill="#E2F024" d="m11.2 5.6.6-.2 10.6 29-.6.3z"/><path fill="#E2F024" d="m10 6.2.5-.3 13 28-.5.3z"/><path fill="#E2F024" d="m7.9 6.2 1.4-.8L25.7 34l-1.4.8z"/><path fill="#E2F024" d="m9.1 10.5 1.3-1L27 33.2l-1.3 1z"/><path fill="#E2F024" d="m7.3 9.3.6-.5 18.4 22-.6.5z"/><path fill="#E2F024" d="m6.4 10.2.5-.6L27.2 30l-.5.6z"/><path fill="#E2F024" d="m4.5 10.8 1-1.3 23.6 19.9-1 1.2z"/><path fill="#E2F024" d="m2.7 10.4.2-.3 26.5 18.6-.2.3z"/><path fill="#E2F024" d="m2.4 12.6.8-1.4 28 16.3-.8 1.4z"/><path fill="#E2F024" d="m4.5 15 .4-.8 23.5 11-.3.7z"/><path fill="#E2F024" d="m2.4 15.4.3-.8 26 9.5-.2.8z"/><path fill="#E2F024" d="M2.3 16.3v-.2l28.8 7.7v.3z"/><path fill="#E2F024" d="m1.1 17.8.2-.9 30.5 5.4-.2 1z"/><path fill="#E2F024" d="M1.3 19.2v-1l31 2.8-.2.9z"/><circle cx="18" cy="18.6" r="6.7" fill="#E3F024" transform="rotate(-90 18 18.6)"/><path fill="#E2F024" d="M0 19v-.8h30.6v.7z"/><path fill="#E2F024" d="m2.9 20.6-.2-1.4 30.5-2.6.2 1.4z"/><path fill="#E2F024" d="m2.2 22.1-.1-1 26.7-4.7.1 1z"/><path fill="#E2F024" d="M1.5 23.4 1 22l29.8-8 .4 1.4z"/><path fill="#E2F024" d="m3.6 24.1-.2-.5 29-10.6.3.5z"/><path fill="#E2F024" d="m4.2 25.4-.3-.6 28-13 .3.5z"/><path fill="#E2F024" d="m4.2 27.5-.8-1.4L31.9 9.6l.8 1.4z"/><path fill="#E2F024" d="m8.5 26.2-1-1.3L31.2 8.5l.9 1.3z"/><path fill="#E2F024" d="m7.3 28-.5-.5L28.8 9l.5.6z"/><path fill="#E2F024" d="m8.2 29-.6-.6L27.9 8.1l.5.6z"/><path fill="#E2F024" d="m8.8 30.9-1.3-1L27.3 6.1l1.2 1z"/><path fill="#E2F024" d="m8.4 32.7-.3-.2L26.7 5.8l.3.3z"/><path fill="#E2F024" d="m10.6 33-1.4-.8L25.4 4.1l1.4.8z"/><path fill="#E2F024" d="m12.9 30.9-.7-.4L23.2 7l.7.4z"/><path fill="#E2F024" d="m13.3 33-.7-.3L22 6.5l.7.3z"/><path fill="#E2F024" d="M14.3 33.1H14l7.7-28.8h.3z"/><path fill="#E2F024" d="m15.8 34.3-.9-.2 5.4-30.6.9.2z"/><path fill="#E2F024" d="M17.1 34.1h-.9L19 3h1z"/><path fill="#fff" d="M51.9 26.3c-1.3 0-2.5-.2-3.5-.8a6 6 0 0 1-2.5-2.3c-.6-1-1-2.3-1-3.8 0-1.1.3-2.1.6-3a6.3 6.3 0 0 1 3.8-3.5 7.8 7.8 0 0 1 4.7-.2c.7.1 1.3.4 1.9.7V16h-.5l-.8-1.6-.5-.7c-.1-.2-.3-.3-.6-.4a2 2 0 0 0-1.1-.3 4 4 0 0 0-2.2.6 4 4 0 0 0-1.5 2 10 10 0 0 0-.6 3.8c0 1.6.2 2.8.5 3.8a4 4 0 0 0 1.5 2 4 4 0 0 0 2.1.6 4 4 0 0 0 1.6-.3c.3-.1.5-.3.6-.5l.4-.7.8-1.8h.5v2.8c-.6.4-1.3.6-2 .8-.7.2-1.4.2-2.2.2Zm8 0a3 3 0 0 1-1.9-.7c-.5-.4-.8-1-.8-1.8 0-.7.3-1.3 1-1.8.6-.5 1.5-1 2.9-1.2l.8-.1.9-.2v-1.4c0-1-.2-1.6-.4-1.9-.2-.3-.6-.5-1-.5h-.1a1 1 0 0 0-.8.3c-.1.2-.3.5-.3 1v.2c-.1.5-.2 1-.5 1.2-.2.2-.5.3-.9.3-.3 0-.6 0-.8-.3-.2-.2-.3-.5-.3-.8 0-.5.1-1 .5-1.4.4-.4.9-.6 1.5-.8a7 7 0 0 1 2-.3c1.2 0 2.1.3 2.7.9.7.5 1 1.5 1 2.8v4.4c0 .6.2.9.8.9h.5l.2.2-.8.7c-.3.2-.7.3-1.2.3-.6 0-1-.2-1.4-.4a2 2 0 0 1-.7-1.1c-.4.4-.8.8-1.2 1-.5.3-1 .5-1.7.5Zm1.2-1.3c.3 0 .5 0 .8-.2l.9-.6V21l-1.1.2c-.6.2-1 .4-1.4.8a2 2 0 0 0-.5 1.4c0 .6.1 1 .3 1.2.3.3.6.4 1 .4Zm6.2 1v-.4h.3c.6-.2.8-.5.8-1V17h-1v-.4l.4-.1c.2 0 .4-.1.5-.3.2-.1.3-.4.3-.6a5.2 5.2 0 0 1 1.5-2.5 4 4 0 0 1 1.6-1c.5-.2 1-.3 1.6-.3.5 0 1 .1 1.4.3.5.2.7.6.7 1s-.1.7-.3.9c-.2.2-.5.3-1 .3s-1-.4-1.5-1l-.3-.4c-.1-.2-.3-.2-.5-.2l-.3.4a12 12 0 0 0-.4 3.3h2.3v.6h-2.3v7.5c0 .5.3.9.9 1l.5.1v.4h-5.2ZM79 16.1c.8 0 1.5.2 2.1.5.6.4 1 .8 1.4 1.5a4.2 4.2 0 0 1 .5 2.5v.5h-6.1c0 1.3.3 2.3.8 3a3 3 0 0 0 2.2.8c.6 0 1.2 0 1.6-.3.4-.2.8-.5 1.1-1l.3.4c-.4.7-1 1.3-1.6 1.7-.7.4-1.5.6-2.4.6a5 5 0 0 1-2.5-.6 4 4 0 0 1-1.7-1.7 6 6 0 0 1-.6-2.8c0-1 .2-2 .7-2.7a4 4 0 0 1 1.8-1.8 5 5 0 0 1 2.4-.6Zm-.1.6c-.4 0-.8 0-1 .3-.3.2-.6.6-.7 1.2-.2.5-.3 1.3-.3 2.3h3.6c.1-1.3 0-2.3-.2-3-.2-.5-.7-.8-1.4-.8Zm-1.1-2.2a201 201 0 0 1 2.2-3.6c.2-.2.4-.3.7-.3.2 0 .4 0 .6.2.2.2.3.4.3.7 0 .2 0 .5-.2.7l-.9.7a171 171 0 0 1-2.4 1.9l-.3-.3ZM90.9 26v-.4l.8-.2c.5-.1.8-.4.8-1v-11h-1.6c-.4 0-.7 0-1 .3l-.5 1-.7 1.5H88l.1-3.4h11.5v3.4h-.5l-.7-1.5-.6-1c-.2-.2-.5-.3-1-.3h-1.5v11c0 .6.3 1 .8 1l.8.2v.4H91Zm9.8 0v-.4h.2c.5-.2.7-.6.7-1V14.1l-.1-.6c-.1-.1-.3-.3-.5-.3l-.3-.1v-.4l3.3-.8.3.1v5.4c.4-.4 1-.7 1.5-1a4 4 0 0 1 1.8-.4c.9 0 1.6.2 2 .7.6.5.8 1.3.8 2.3v5.4c0 .3 0 .5.2.7 0 .1.3.3.5.3l.2.1v.4h-4.5v-.4h.2c.5-.2.7-.5.7-1v-5.9c0-.5 0-.9-.3-1.1-.2-.2-.5-.3-1-.3-.3 0-.6 0-1 .2-.3 0-.7.3-1 .6v7.1l.6.3.2.1v.4h-4.5Zm16.4-9.9c.9 0 1.6.2 2.2.5.6.4 1 .8 1.4 1.5a4.2 4.2 0 0 1 .4 2.5v.5h-6c0 1.3.2 2.3.7 3a3 3 0 0 0 2.2.8c.7 0 1.2 0 1.6-.3.4-.2.8-.5 1.2-1l.3.4a4.6 4.6 0 0 1-4.1 2.3 5 5 0 0 1-2.5-.6c-.7-.4-1.3-1-1.7-1.7a6 6 0 0 1-.6-2.8c0-1 .2-2 .7-2.7.5-.8 1-1.4 1.8-1.8a5 5 0 0 1 2.4-.6Zm0 .6c-.5 0-.8 0-1.1.3-.3.2-.5.6-.7 1.2l-.3 2.3h3.6a7 7 0 0 0-.1-3c-.3-.5-.8-.8-1.5-.8Zm10 9.6c-1 0-1.8-.2-2.5-.6-.8-.5-1.3-1-1.7-1.8a6 6 0 0 1-.6-2.7c0-1 .2-2 .6-2.7a4 4 0 0 1 1.8-1.8c.7-.4 1.5-.6 2.5-.6s1.7.2 2.5.6c.7.4 1.3 1 1.7 1.8.5.7.7 1.6.7 2.7 0 1-.2 2-.6 2.7-.4.8-1 1.4-1.7 1.8-.8.4-1.6.6-2.6.6Zm0-.6c.6 0 1-.1 1.2-.4.3-.2.6-.7.7-1.3l.2-2.8c0-1.2 0-2-.2-2.7-.1-.7-.4-1.2-.7-1.4-.3-.3-.6-.4-1.1-.4-.5 0-.9.1-1.2.4-.3.2-.5.7-.6 1.4-.2.6-.2 1.5-.2 2.7 0 1.2 0 2.1.2 2.8.1.6.3 1 .6 1.3.3.3.7.4 1.2.4Z"/></svg>
