<svg width="135" height="38" viewBox="0 0 135 38" fill="none" xmlns="http://www.w3.org/2000/svg">
<ellipse cx="16.7947" cy="20.0713" rx="6.69216" ry="6.7061" fill="#E3F024"/>
<rect x="16.4385" y="2" width="0.717284" height="30.6279" fill="#E2F024"/>
<rect width="1.38815" height="30.6274" transform="matrix(0.996179 -0.0873359 0.0869759 0.99621 14.7197 4.87695)" fill="#E2F024"/>
<rect width="1.01348" height="27.1407" transform="matrix(0.984746 -0.173999 0.173298 0.984869 13.2559 4.25391)" fill="#E2F024"/>
<rect width="1.51539" height="30.9316" transform="matrix(0.965791 -0.259322 0.258317 0.96606 11.9375 3.49023)" fill="#E2F024"/>
<rect width="0.595129" height="30.9284" transform="matrix(0.939463 -0.342649 0.341392 0.939921 11.2383 5.63867)" fill="#E2F024"/>
<rect width="0.595206" height="30.9245" transform="matrix(0.90597 -0.423341 0.421896 0.906644 10.0039 6.17773)" fill="#E2F024"/>
<rect width="1.61218" height="32.9717" transform="matrix(0.865574 -0.500781 0.49922 0.866475 7.86621 6.1875)" fill="#E2F024"/>
<rect width="1.61244" height="28.7278" transform="matrix(0.818591 -0.574377 0.572775 0.819712 9.12012 10.4941)" fill="#E2F024"/>
<rect width="0.769455" height="28.7228" transform="matrix(0.765385 -0.643572 0.642002 0.766703 7.27832 9.30273)" fill="#E2F024"/>
<rect width="0.769594" height="28.7176" transform="matrix(0.706371 -0.707842 0.706371 0.707842 6.37793 10.1758)" fill="#E2F024"/>
<rect width="1.56996" height="30.7654" transform="matrix(0.642002 -0.766703 0.765385 0.643572 4.51855 10.7715)" fill="#E2F024"/>
<rect width="0.39979" height="32.4342" transform="matrix(0.572775 -0.819712 0.818591 0.574377 2.66504 10.4355)" fill="#E2F024"/>
<rect width="1.56141" height="32.4289" transform="matrix(0.49922 -0.866475 0.865574 0.500781 2.37207 12.627)" fill="#E2F024"/>
<rect width="0.765265" height="25.9614" transform="matrix(0.421896 -0.906644 0.90597 0.423341 4.51855 14.9238)" fill="#E2F024"/>
<rect width="0.765363" height="27.7494" transform="matrix(0.341392 -0.939921 0.939463 0.342649 2.43359 15.3691)" fill="#E2F024"/>
<rect width="0.275482" height="29.7704" transform="matrix(0.258317 -0.96606 0.965791 0.259322 2.25195 16.3418)" fill="#E2F024"/>
<rect width="0.904441" height="30.9969" transform="matrix(0.173298 -0.984869 0.984746 0.173999 1.09668 17.8203)" fill="#E2F024"/>
<rect width="0.904484" height="30.9954" transform="matrix(0.0869759 -0.99621 0.996179 0.0873359 1.26562 19.168)" fill="#E2F024"/>
<ellipse cx="18.034" cy="18.5576" rx="6.7061" ry="6.69216" transform="rotate(-90 18.034 18.5576)" fill="#E3F024"/>
<rect y="18.916" width="0.718778" height="30.5643" transform="rotate(-90 0 18.916)" fill="#E2F024"/>
<rect width="1.39099" height="30.5647" transform="matrix(-0.0869759 -0.99621 0.996179 -0.0873359 2.87012 20.6367)" fill="#E2F024"/>
<rect width="1.01546" height="27.0877" transform="matrix(-0.173298 -0.984869 0.984746 -0.173999 2.24902 22.1055)" fill="#E2F024"/>
<rect width="1.51813" height="30.8759" transform="matrix(-0.258317 -0.96606 0.965791 -0.259322 1.4873 23.4258)" fill="#E2F024"/>
<rect width="0.596079" height="30.8792" transform="matrix(-0.341392 -0.939921 0.939463 -0.342649 3.63086 24.127)" fill="#E2F024"/>
<rect width="0.596002" height="30.8831" transform="matrix(-0.421896 -0.906644 0.90597 -0.423341 4.16992 25.3633)" fill="#E2F024"/>
<rect width="1.61385" height="32.9374" transform="matrix(-0.49922 -0.866475 0.865574 -0.500781 4.17773 27.5059)" fill="#E2F024"/>
<rect width="1.61359" height="28.7074" transform="matrix(-0.572775 -0.819712 0.818591 -0.574377 8.47559 26.248)" fill="#E2F024"/>
<rect width="0.769733" height="28.7124" transform="matrix(-0.642002 -0.766703 0.765385 -0.643572 7.28809 28.0938)" fill="#E2F024"/>
<rect width="0.769594" height="28.7176" transform="matrix(-0.706371 -0.707842 0.706371 -0.707842 8.1582 28.9961)" fill="#E2F024"/>
<rect width="1.56939" height="30.7766" transform="matrix(-0.765385 -0.643572 0.642002 -0.766703 8.75293 30.8594)" fill="#E2F024"/>
<rect width="0.399506" height="32.4573" transform="matrix(-0.818591 -0.574377 0.572775 -0.819712 8.41797 32.7168)" fill="#E2F024"/>
<rect width="1.55979" height="32.4626" transform="matrix(-0.865574 -0.500781 0.49922 -0.866475 10.6055 33.0117)" fill="#E2F024"/>
<rect width="0.764242" height="25.9962" transform="matrix(-0.90597 -0.423341 0.421896 -0.906644 12.8965 30.8594)" fill="#E2F024"/>
<rect width="0.764143" height="27.7937" transform="matrix(-0.939463 -0.342649 0.341392 -0.939921 13.3418 32.9492)" fill="#E2F024"/>
<rect width="0.274986" height="29.8241" transform="matrix(-0.965791 -0.259322 0.258317 -0.96606 14.3125 33.1309)" fill="#E2F024"/>
<rect width="0.902674" height="31.0575" transform="matrix(-0.984746 -0.173999 0.173298 -0.984869 15.7871 34.2891)" fill="#E2F024"/>
<rect width="0.902632" height="31.059" transform="matrix(-0.996179 -0.0873359 0.0869759 -0.99621 17.1328 34.1191)" fill="#E2F024"/>
<path d="M51.8655 26.34C50.5722 26.34 49.4055 26.0733 48.3655 25.54C47.3255 25.0067 46.4988 24.22 45.8855 23.18C45.2855 22.14 44.9855 20.8733 44.9855 19.38C44.9855 18.26 45.1655 17.2667 45.5255 16.4C45.8988 15.5333 46.4055 14.8067 47.0455 14.22C47.6988 13.62 48.4455 13.1733 49.2855 12.88C50.1255 12.5733 51.0188 12.42 51.9655 12.42C52.6988 12.42 53.3855 12.5067 54.0255 12.68C54.6655 12.84 55.2788 13.08 55.8655 13.4L55.9455 16.02H55.4055L54.5655 14.44C54.4322 14.1733 54.2855 13.9333 54.1255 13.72C53.9788 13.5067 53.7855 13.3533 53.5455 13.26C53.2122 13.1 52.8188 13.02 52.3655 13.02C51.5788 13.02 50.8588 13.22 50.2055 13.62C49.5655 14.02 49.0522 14.6867 48.6655 15.62C48.2788 16.54 48.0855 17.8 48.0855 19.4C48.0855 20.9867 48.2655 22.2467 48.6255 23.18C48.9988 24.1133 49.4988 24.78 50.1255 25.18C50.7522 25.5667 51.4588 25.76 52.2455 25.76C52.6055 25.76 52.8988 25.7333 53.1255 25.68C53.3522 25.6267 53.5788 25.5533 53.8055 25.46C54.0722 25.3533 54.2788 25.2 54.4255 25C54.5722 24.7867 54.6988 24.5467 54.8055 24.28L55.5655 22.46H56.1055L56.0255 25.34C55.4522 25.66 54.8188 25.9067 54.1255 26.08C53.4322 26.2533 52.6788 26.34 51.8655 26.34ZM59.9363 26.28C59.1763 26.28 58.5296 26.0667 57.9963 25.64C57.4763 25.2 57.2163 24.5733 57.2163 23.76C57.2163 23.12 57.5229 22.5333 58.1363 22C58.7629 21.4533 59.7429 21.0533 61.0763 20.8C61.3029 20.7467 61.5629 20.7 61.8563 20.66C62.1629 20.6067 62.4629 20.5533 62.7563 20.5V19.08C62.7563 18.1733 62.6429 17.5467 62.4163 17.2C62.1896 16.8533 61.8296 16.68 61.3363 16.68H61.2763C60.9696 16.68 60.7229 16.78 60.5363 16.98C60.3629 17.1667 60.2496 17.48 60.1963 17.92L60.1363 18.18C60.0963 18.7133 59.9563 19.1067 59.7163 19.36C59.4763 19.6 59.1763 19.72 58.8163 19.72C58.4829 19.72 58.2029 19.62 57.9763 19.42C57.7629 19.2067 57.6563 18.9333 57.6563 18.6C57.6563 18.0533 57.8429 17.5933 58.2163 17.22C58.5896 16.8467 59.0829 16.5667 59.6963 16.38C60.3229 16.1933 60.9963 16.1 61.7163 16.1C62.9029 16.1 63.8096 16.3867 64.4363 16.96C65.0629 17.5333 65.3763 18.4667 65.3763 19.76V24.22C65.3763 24.7933 65.6496 25.08 66.1963 25.08H66.6563L66.8563 25.3C66.6163 25.6067 66.3496 25.84 66.0563 26C65.7629 26.1733 65.3629 26.26 64.8563 26.26C64.2829 26.26 63.8229 26.1267 63.4763 25.86C63.1429 25.58 62.9229 25.2133 62.8163 24.76C62.3896 25.2133 61.9696 25.58 61.5563 25.86C61.1429 26.14 60.6029 26.28 59.9363 26.28ZM61.0963 25C61.3629 25 61.6163 24.94 61.8563 24.82C62.0963 24.7 62.3963 24.5 62.7563 24.22V21.02C62.4096 21.0733 62.0563 21.14 61.6963 21.22C61.1229 21.3533 60.6563 21.6 60.2963 21.96C59.9496 22.32 59.7763 22.8067 59.7763 23.42C59.7763 23.9533 59.8963 24.3533 60.1363 24.62C60.3896 24.8733 60.7096 25 61.0963 25ZM67.3297 26V25.62L67.6297 25.54C68.1631 25.3933 68.4364 25.0667 68.4497 24.56C68.4497 24.0933 68.4497 23.6333 68.4497 23.18C68.4631 22.7133 68.4697 22.2533 68.4697 21.8V17.02H67.3297V16.58L67.7697 16.5C68.0364 16.46 68.2297 16.3667 68.3497 16.22C68.4697 16.06 68.5564 15.84 68.6097 15.56C68.7564 15.0267 68.9497 14.5667 69.1897 14.18C69.4431 13.78 69.7431 13.4133 70.0897 13.08C70.5831 12.6 71.1097 12.2667 71.6697 12.08C72.2297 11.8933 72.7764 11.8 73.3097 11.8C73.8297 11.8 74.3031 11.9067 74.7297 12.12C75.1697 12.32 75.3897 12.6667 75.3897 13.16C75.3897 13.5067 75.2831 13.7867 75.0697 14C74.8697 14.2 74.5764 14.3 74.1897 14.3C73.5764 14.3 73.0364 13.94 72.5697 13.22L72.3297 12.94C72.1697 12.74 72.0097 12.66 71.8497 12.7C71.6897 12.74 71.5764 12.8733 71.5097 13.1C71.4031 13.5267 71.3164 14.0267 71.2497 14.6C71.1964 15.1733 71.1631 15.7733 71.1497 16.4H73.4497V17.02H71.1497V21.8C71.1497 22.2533 71.1497 22.7067 71.1497 23.16C71.1631 23.6 71.1697 24.0467 71.1697 24.5C71.1697 25.0333 71.4364 25.36 71.9697 25.48L72.4897 25.62V26H67.3297ZM78.8722 16.1C79.7122 16.1 80.4322 16.2733 81.0322 16.62C81.6322 16.9667 82.0922 17.4467 82.4122 18.06C82.7456 18.66 82.9122 19.3533 82.9122 20.14C82.9122 20.3133 82.9056 20.48 82.8922 20.64C82.8789 20.7867 82.8522 20.9267 82.8122 21.06H76.7922C76.8056 22.4333 77.0589 23.42 77.5522 24.02C78.0589 24.62 78.7922 24.92 79.7522 24.92C80.4189 24.92 80.9589 24.8133 81.3722 24.6C81.7856 24.3733 82.1656 24.06 82.5122 23.66L82.8322 23.96C82.4322 24.6933 81.8856 25.2667 81.1922 25.68C80.5122 26.08 79.6989 26.28 78.7522 26.28C77.8056 26.28 76.9722 26.08 76.2522 25.68C75.5322 25.28 74.9656 24.7067 74.5522 23.96C74.1522 23.2 73.9522 22.2933 73.9522 21.24C73.9522 20.1467 74.1856 19.22 74.6522 18.46C75.1322 17.7 75.7456 17.12 76.4922 16.72C77.2522 16.3067 78.0456 16.1 78.8722 16.1ZM78.7722 16.68C78.3856 16.68 78.0456 16.7933 77.7522 17.02C77.4722 17.2333 77.2456 17.62 77.0722 18.18C76.9122 18.7267 76.8189 19.5 76.7922 20.5H80.3722C80.5189 19.1533 80.4656 18.18 80.2122 17.58C79.9589 16.98 79.4789 16.68 78.7722 16.68ZM77.6522 14.5C77.8656 14.1267 78.0922 13.7333 78.3322 13.32C78.5856 12.8933 78.8789 12.3733 79.2122 11.76C79.4389 11.3467 79.6589 11.0533 79.8722 10.88C80.0856 10.6933 80.3256 10.6 80.5922 10.6C80.8322 10.6 81.0456 10.68 81.2322 10.84C81.4322 11 81.5322 11.2133 81.5322 11.48C81.5322 11.7333 81.4456 11.9667 81.2722 12.18C81.0989 12.3933 80.8189 12.64 80.4322 12.92C79.8989 13.3333 79.4389 13.6867 79.0522 13.98C78.6656 14.2733 78.3189 14.5467 78.0122 14.8L77.6522 14.5ZM90.87 26V25.58L91.67 25.42C92.23 25.3 92.51 24.9733 92.51 24.44V18.98C92.51 18.0467 92.51 17.1133 92.51 16.18C92.51 15.2467 92.5034 14.3133 92.49 13.38H90.91C90.4834 13.38 90.17 13.4933 89.97 13.72C89.77 13.9467 89.57 14.2667 89.37 14.68L88.67 16.16H88.11L88.21 12.78H99.69L99.79 16.16H99.23L98.53 14.68C98.33 14.2667 98.13 13.9467 97.93 13.72C97.73 13.4933 97.4167 13.38 96.99 13.38H95.39V24.44C95.39 24.9867 95.67 25.3133 96.23 25.42L97.05 25.58V26H90.87ZM100.65 26V25.6L100.91 25.52C101.39 25.3733 101.63 25.04 101.63 24.52V14.22C101.63 13.94 101.584 13.7333 101.49 13.6C101.397 13.4533 101.217 13.3467 100.95 13.28L100.65 13.2V12.82L104.03 11.96L104.35 12.14L104.27 14.96V17.52C104.737 17.1333 105.244 16.8 105.79 16.52C106.35 16.24 106.95 16.1 107.59 16.1C108.47 16.1 109.157 16.3467 109.65 16.84C110.157 17.3333 110.41 18.0933 110.41 19.12V24.54C110.41 24.8067 110.464 25.02 110.57 25.18C110.677 25.34 110.864 25.46 111.13 25.54L111.31 25.6V26H106.75V25.6L106.99 25.52C107.47 25.3867 107.71 25.0533 107.71 24.52V18.74C107.71 18.1933 107.617 17.8133 107.43 17.6C107.244 17.3867 106.917 17.28 106.45 17.28C106.13 17.28 105.79 17.34 105.43 17.46C105.084 17.58 104.717 17.78 104.33 18.06V24.56C104.33 24.8267 104.384 25.04 104.49 25.2C104.597 25.36 104.777 25.4733 105.03 25.54L105.21 25.6V26H100.65ZM117.114 16.1C117.954 16.1 118.674 16.2733 119.274 16.62C119.874 16.9667 120.334 17.4467 120.654 18.06C120.988 18.66 121.154 19.3533 121.154 20.14C121.154 20.3133 121.148 20.48 121.134 20.64C121.121 20.7867 121.094 20.9267 121.054 21.06H115.034C115.048 22.4333 115.301 23.42 115.794 24.02C116.301 24.62 117.034 24.92 117.994 24.92C118.661 24.92 119.201 24.8133 119.614 24.6C120.028 24.3733 120.408 24.06 120.754 23.66L121.074 23.96C120.674 24.6933 120.128 25.2667 119.434 25.68C118.754 26.08 117.941 26.28 116.994 26.28C116.048 26.28 115.214 26.08 114.494 25.68C113.774 25.28 113.208 24.7067 112.794 23.96C112.394 23.2 112.194 22.2933 112.194 21.24C112.194 20.1467 112.428 19.22 112.894 18.46C113.374 17.7 113.988 17.12 114.734 16.72C115.494 16.3067 116.288 16.1 117.114 16.1ZM117.014 16.68C116.628 16.68 116.288 16.7933 115.994 17.02C115.714 17.2333 115.488 17.62 115.314 18.18C115.154 18.7267 115.061 19.5 115.034 20.5H118.614C118.761 19.1533 118.708 18.18 118.454 17.58C118.201 16.98 117.721 16.68 117.014 16.68ZM127.173 26.28C126.186 26.28 125.32 26.0733 124.573 25.66C123.84 25.2467 123.266 24.66 122.853 23.9C122.453 23.14 122.253 22.2333 122.253 21.18C122.253 20.1267 122.466 19.22 122.893 18.46C123.333 17.7 123.92 17.12 124.653 16.72C125.4 16.3067 126.24 16.1 127.173 16.1C128.106 16.1 128.94 16.3067 129.673 16.72C130.42 17.12 131.006 17.7 131.433 18.46C131.873 19.2067 132.093 20.1133 132.093 21.18C132.093 22.2333 131.886 23.1467 131.473 23.92C131.073 24.68 130.506 25.2667 129.773 25.68C129.04 26.08 128.173 26.28 127.173 26.28ZM127.173 25.72C127.653 25.72 128.04 25.5933 128.333 25.34C128.64 25.0733 128.86 24.6133 128.993 23.96C129.126 23.3067 129.193 22.3933 129.193 21.22C129.193 20.0333 129.126 19.1133 128.993 18.46C128.86 17.7933 128.64 17.3333 128.333 17.08C128.04 16.8133 127.653 16.68 127.173 16.68C126.693 16.68 126.306 16.8133 126.013 17.08C125.72 17.3333 125.5 17.7933 125.353 18.46C125.22 19.1133 125.153 20.0333 125.153 21.22C125.153 22.3933 125.22 23.3067 125.353 23.96C125.5 24.6133 125.72 25.0733 126.013 25.34C126.306 25.5933 126.693 25.72 127.173 25.72Z" fill="white"/>
</svg>
